<svg width="32" height="32" viewBox="0 0 32 32" fill="none" xmlns="http://www.w3.org/2000/svg">
<path d="M19.9999 29.3334V24C20.1854 22.3297 19.7065 20.6535 18.6666 19.3334C22.6666 19.3334 26.6666 16.6667 26.6666 12C26.7732 10.3334 26.3066 8.69335 25.3332 7.33335C25.7066 5.80002 25.7066 4.20002 25.3332 2.66669C25.3332 2.66669 23.9999 2.66669 21.3332 4.66669C17.8132 4.00002 14.1866 4.00002 10.6666 4.66669C7.99989 2.66669 6.66655 2.66669 6.66655 2.66669C6.26655 4.20002 6.26655 5.80002 6.66655 7.33335C5.69572 8.68787 5.22452 10.3371 5.33322 12C5.33322 16.6667 9.33322 19.3334 13.3332 19.3334C12.8132 19.9867 12.4266 20.7334 12.1999 21.5334C11.9732 22.3334 11.9066 23.1734 11.9999 24V29.3334" stroke="#E60076" stroke-width="2.66667" stroke-linecap="round" stroke-linejoin="round"/>
<path d="M12.0001 24C5.98675 26.6666 5.33341 21.3333 2.66675 21.3333" stroke="#E60076" stroke-width="2.66667" stroke-linecap="round" stroke-linejoin="round"/>
</svg>
