<svg width="28" height="28" viewBox="0 0 28 28" fill="none" xmlns="http://www.w3.org/2000/svg">
<path d="M15.75 8.16667C16.0722 8.16667 16.3333 7.9055 16.3333 7.58333C16.3333 7.26117 16.0722 7 15.75 7C15.4278 7 15.1667 7.26117 15.1667 7.58333C15.1667 7.9055 15.4278 8.16667 15.75 8.16667Z" fill="white" stroke="white" stroke-width="2.33333" stroke-linecap="round" stroke-linejoin="round"/>
<path d="M20.4167 12.8334C20.7388 12.8334 21 12.5722 21 12.25C21 11.9279 20.7388 11.6667 20.4167 11.6667C20.0945 11.6667 19.8333 11.9279 19.8333 12.25C19.8333 12.5722 20.0945 12.8334 20.4167 12.8334Z" fill="white" stroke="white" stroke-width="2.33333" stroke-linecap="round" stroke-linejoin="round"/>
<path d="M9.91667 9.33335C10.2388 9.33335 10.5 9.07219 10.5 8.75002C10.5 8.42785 10.2388 8.16669 9.91667 8.16669C9.5945 8.16669 9.33334 8.42785 9.33334 8.75002C9.33334 9.07219 9.5945 9.33335 9.91667 9.33335Z" fill="white" stroke="white" stroke-width="2.33333" stroke-linecap="round" stroke-linejoin="round"/>
<path d="M7.58333 15.1667C7.9055 15.1667 8.16667 14.9055 8.16667 14.5833C8.16667 14.2612 7.9055 14 7.58333 14C7.26117 14 7 14.2612 7 14.5833C7 14.9055 7.26117 15.1667 7.58333 15.1667Z" fill="white" stroke="white" stroke-width="2.33333" stroke-linecap="round" stroke-linejoin="round"/>
<path d="M14 2.33331C7.58334 2.33331 2.33334 7.58331 2.33334 14C2.33334 20.4166 7.58334 25.6666 14 25.6666C15.0803 25.6666 15.9227 24.7963 15.9227 23.6973C15.9227 23.1875 15.7127 22.7231 15.4128 22.3848C15.0745 22.0476 14.9018 21.6241 14.9018 21.0723C14.8974 20.8155 14.9447 20.5605 15.041 20.3224C15.1372 20.0843 15.2804 19.868 15.462 19.6864C15.6435 19.5048 15.8598 19.3617 16.0979 19.2654C16.336 19.1692 16.5911 19.1219 16.8478 19.1263H19.1765C22.736 19.1263 25.6573 16.2061 25.6573 12.6466C25.6258 7.01398 20.3712 2.33331 14 2.33331Z" stroke="white" stroke-width="2.33333" stroke-linecap="round" stroke-linejoin="round"/>
</svg>
