<svg width="28" height="28" viewBox="0 0 28 28" fill="none" xmlns="http://www.w3.org/2000/svg">
<path d="M11.5931 18.0834C11.489 17.6796 11.2785 17.3111 10.9837 17.0163C10.6888 16.7215 10.3204 16.511 9.91664 16.4069L2.75914 14.5612C2.63702 14.5265 2.52955 14.453 2.45302 14.3517C2.37649 14.2504 2.33508 14.127 2.33508 14C2.33508 13.8731 2.37649 13.7496 2.45302 13.6483C2.52955 13.5471 2.63702 13.4735 2.75914 13.4389L9.91664 11.592C10.3202 11.488 10.6886 11.2777 10.9834 10.9831C11.2783 10.6884 11.4888 10.3202 11.5931 9.91669L13.4388 2.75919C13.4731 2.6366 13.5466 2.52859 13.648 2.45165C13.7494 2.37471 13.8732 2.33307 14.0006 2.33307C14.1279 2.33307 14.2517 2.37471 14.3531 2.45165C14.4545 2.52859 14.528 2.6366 14.5623 2.75919L16.4068 9.91669C16.511 10.3204 16.7214 10.6889 17.0162 10.9837C17.3111 11.2786 17.6796 11.489 18.0833 11.5932L25.2408 13.4377C25.3639 13.4716 25.4724 13.545 25.5498 13.6466C25.6271 13.7482 25.669 13.8723 25.669 14C25.669 14.1277 25.6271 14.2519 25.5498 14.3534C25.4724 14.455 25.3639 14.5284 25.2408 14.5624L18.0833 16.4069C17.6796 16.511 17.3111 16.7215 17.0162 17.0163C16.7214 17.3111 16.511 17.6796 16.4068 18.0834L14.5611 25.2409C14.5268 25.3635 14.4534 25.4715 14.3519 25.5484C14.2505 25.6253 14.1267 25.667 13.9994 25.667C13.8721 25.667 13.7483 25.6253 13.6468 25.5484C13.5454 25.4715 13.4719 25.3635 13.4376 25.2409L11.5931 18.0834Z" stroke="white" stroke-width="2.33333" stroke-linecap="round" stroke-linejoin="round"/>
<path d="M23.3333 3.5V8.16667" stroke="white" stroke-width="2.33333" stroke-linecap="round" stroke-linejoin="round"/>
<path d="M25.6667 5.83331H21" stroke="white" stroke-width="2.33333" stroke-linecap="round" stroke-linejoin="round"/>
<path d="M4.66669 19.8333V22.1666" stroke="white" stroke-width="2.33333" stroke-linecap="round" stroke-linejoin="round"/>
<path d="M5.83333 21H3.5" stroke="white" stroke-width="2.33333" stroke-linecap="round" stroke-linejoin="round"/>
</svg>
